<svg xmlns="http://www.w3.org/2000/svg" height="500" width="786.4">
  <path style="isolation:auto;mix-blend-mode:normal" d="M105.2 281.6c-3.7-3.6-7.5-5.6-12-1.5-4.8 5.9-8 13.4-9 23.1l-3.3 30.7a41.5 41.5 0 0 1-12.2 25.4 55 55 0 0 1-15.5 14.6c-8.8 4.5-19.2 4.4-29.5 4.4 13.7.6 21.2 8.8 33.9 8.7 4 .6 7.2 0 10.6-1.5a103 103 0 0 0 23.6-14.8c5.7-4.8 11.5-9.3 15.7-17.8a84 84 0 0 0 12-38.8m-46.6 42.7c-.7-1.5-4.2-9.1-4.8-10.7l-1.4-8c0-11.2-1.5-19.3-3-29.3-1.3-10 5.1-19.7 11-26.7 4.7-7.5 11.1-9.4 17-13.3a85.3 85.3 0 0 0 29.6-36 602 602 0 0 0 32-82.4c12.5-27.4 22.5-53.7 59.3-94 70.7-71.6 141.5-59.2 202-29.2l70.6 50.2c7.7 8.4 28.6 14.8 54.9 20.5 18.8 3.4 37.6 6.8 59.6 7.6a86.5 86.5 0 0 1 46.2 24.7 91 91 0 0 1 21.5 49.5c.5 15 0 29.9-2.3 44.4-3.6 11.5 2 19.7 8.8 27.4 14 12.3 15.7 31 14 51.4-.7 28.9 13.7 41 28.6 52.6 11.2 9 27.3 13.4 43.8 17.5-23.6-4-51.6-6.5-60.7-15.2-16.3-9.4-25.8-25.6-34-43.2a55.6 55.6 0 0 0-49.8-26l-5 .3c-13.7 5-28.1 10-41.3 15-8.6 3.2-16.7 6.4-23.7 9.7-19.8 5.6-37.5 6.3-55.4 7.4l-34-1.9c-15.3-1.5-30-5.8-39.4-17.2 0 0-13.7 40.2-14.2 44.8-.3 3.5-24.6 40-36.8 48.5L327 434.3a309.5 309.5 0 0 0-40.3 64.3c2.2-27.3 7.7-55.6 20.1-86.5 4.3-9.7 8.5-17.7 12.7-23.6l4.7-9c3.6-4.7 1.3-11-2.5-17.6-6.5-8.4-13-16-19.6-22.7a98.4 98.4 0 0 0-33.5-24l-6.8 10.7-12.4 19.5L237 361a87 87 0 0 1-31 27.5l-18 12c-6.5 9.4-12.5 13.1-12 38.3-1 5.8-6.4 26.5-33.6 23l-9.2-5.2c-2-1.2-4.6-2.4-6.9-3.6-6-3-6.6-6.9-8-12.1-2.3-9-5.3-23-8.7-29.5-4.5-8.3-9.2-16.5-14.7-23.6-2.4-2-7.2-9.2-9.6-11.9m560.9-245.4l24.8-.9c21.2-3.6 30.8-8.3 37-13.4a36.8 36.8 0 0 0 10.8-30.6c-1.2-4.5-3.4-6.4-4-10.4-.6-2-.9-8.3-1.3-15-.2-4.8-.6-9.9-1.1-14-.4-11.3 10-19.7 26.7-26.3 8.3-.9 16.8-2 23.7-1 10.2-1 15.8 1.5 23.2 2.6-9.1-.8-18.5-2.7-26.4 1.3-8.7 4.4-21.8 10.2-28.8 17 0 0-12.1 13.2-17.3 20.4M135 289.2a57.8 57.8 0 0 1 37-29.8l11.8.3c5.5 0 10.3 1 17.2-1.5a30.2 30.2 0 0 0-14.3 13.5c-6 9.8-13 14-19.6 19.8-8.2 4.4-14 4.7-19.8 5.3m-83.5 12c-1.7 8.2-5.2 14.6-8.5 21.3-4 5.5-7 11.3-13.2 15.7a75.6 75.6 0 0 1-17.2 9.4c-8.3 3.3-16.2 4.4-24.3 5.8l23.1-1 18.1-1.6c8-1.8 16.3-11 24.9-20.3m66.4 118.5c-2.6.9-3.3 3.7-4.5 6-2.1 5 .5 7 1.6 10 4.7 3.3 9.6 5 14.7 3.7 3-1 6-2.4 8.5-5.3 3.5-6.7 3-10.6 2.8-14.6-1.5-4.2-3.6-5-6-6.6a13.3 13.3 0 0 0-7.2-2.6m118.7-121.3c1.9 8.8.8 20.6 0 32-3.4 12.4 2.8 23.3 6.2 34.5 6.9 15.2 13 21 23.4 36.1-2-11-1-12.7-1.2-23.2-.6-20.2.4-32.3 3-37.3l8.9-28.8M569.5 304l.9 17.9c2.9 20.2 9.6 38.4 18.8 55.5 11.3 16.4 16.8 27.4 40.2 54.8 11.7 14 21.6 30 32.3 45.2a1310 1310 0 0 1-36.6-58.9c-5.5-14.2-12-28.8-14.9-42.3-1-10.8-2.3-21.8-.8-30.4l4.8-20.8 2.4-22.3-.8-14m-485 83.5c.2 1.2.3 2.4.7 3.6.6 2 1.3 3.5 2.6 5.1.5.7 1.2 2.1 1.8 1.6 1.9-1.6-4.3-4-3.8-6.4.4-1.5 2.8-1.3 3.7-2.5.8-1 2-2.4 1.4-3.5-.8-1.5-3.5-1.7-5-1-.8.5-1.3 4.6-1.7 5.5" stroke="#000" stroke-width="6.9" fill="none" color="#000"/>
</svg>
